<?xml version="1.0" encoding="UTF-8" standalone="no"?>
<svg
 
   viewBox="0 0 32 32"
   height="32"
   width="32"
  
>
 
  <path


     d="M 30.303665,15.304341 16.211408,1.2129348 c -0.20113,-0.2014534 -0.43309,-0.30260245 -0.695234,-0.30260245 -0.261825,0 -0.493463,0.10115035 -0.695021,0.30260245 l -1.512167,1.5119537 c -0.201554,0.2015584 -0.302178,0.4330913 -0.302178,0.6955513 0,0.2624603 0.100635,0.4939933 0.302178,0.6955518 L 25.193525,16.000212 13.309094,27.884749 c -0.201554,0.201554 -0.302179,0.433516 -0.302179,0.695234 0,0.262354 0.100634,0.49431 0.302179,0.695868 l 1.512165,1.511532 c 0.201442,0.201777 0.43309,0.302285 0.695021,0.302285 0.262459,0 0.494098,-0.100732 0.695128,-0.302285 L 30.303665,16.695868 c 0.201442,-0.201463 0.301965,-0.433513 0.301965,-0.695549 0,-0.262039 -0.100516,-0.493995 -0.301965,-0.695978 z"
     />
  <path


     d="m 18.993614,16.000319 c 0,-0.262039 -0.1003,-0.494101 -0.302601,-0.695978 L 4.5997104,1.2129348 C 4.3982587,1.0114821 4.1663018,0.91033235 3.9042659,0.91033235 c -0.2620373,0 -0.4940993,0.10115045 -0.695552,0.30260255 L 1.6968664,2.7249944 C 1.4949906,2.9265529 1.3943698,3.1580857 1.3943698,3.4205459 c 0,0.2624605 0.1006211,0.4939931 0.3024966,0.6955514 L 13.581085,16.000319 1.6968664,27.884749 c -0.2018758,0.201554 -0.3024966,0.433516 -0.3024966,0.695234 0,0.262354 0.1006211,0.49431 0.3024966,0.695868 l 1.5117416,1.511532 c 0.2015586,0.201777 0.4335151,0.302285 0.695551,0.302285 0.2620373,0 0.4939944,-0.100732 0.6955514,-0.302285 L 18.691013,16.695868 c 0.20229,-0.201463 0.302601,-0.433513 0.302601,-0.695549 z"
     />
</svg>
