<?xml version="1.0" encoding="UTF-8" standalone="no"?>
<svg
  
   viewBox="0 0 32 32"
   height="32"
   width="32"
  >

  <path

     d="m 22.036541,17.889583 v 4.193609 h -0.0093 -5.125535 v -1.167523 h 4.274225 l -0.769792,-8.980388 c 1.246336,-1.875636 1.877018,-3.566834 1.877018,-5.0419133 0,-3.4645758 -2.818623,-6.28319938 -6.283199,-6.28319938 -3.464576,0 -6.2831994,2.81862358 -6.2831994,6.28319938 0,1.4750192 0.6306824,3.1662173 1.8769584,5.0418533 l -0.769732,8.980448 h 4.274225 v 1.167523 H 9.9727167 9.9634588 V 17.889583 H 7.6638813 v 1.803496 h 0.4960816 v 4.193609 h 1.8127538 v 2.795719 h 5.1255353 v 1.436184 l -5.5411209,1.007493 v 2.263748 h 1.8034959 v -0.758671 l 3.737625,-0.679557 v 1.438228 h 1.803496 v -1.438228 l 3.737625,0.679557 v 0.758671 h 1.803496 v -2.263808 l -5.541121,-1.007433 v -1.436184 h 5.125535 v -2.795719 h 1.812754 v -4.193609 h 0.496082 V 17.889583 Z M 11.520297,6.8933677 c 0,-2.4701281 2.009575,-4.4797035 4.479703,-4.4797035 2.470128,0 4.479703,2.0095754 4.479703,4.4797035 0,1.3912768 -0.858223,3.2215843 -2.48191,5.2930203 C 17.254572,13.134546 16.503416,13.934697 16,14.442741 15.496584,13.934636 14.745308,13.134485 14.002207,12.186388 12.37852,10.114952 11.520297,8.2846445 11.520297,6.8933677 Z m 1.268458,12.2188053 0.431336,-5.032535 c 1.138367,1.341861 2.124759,2.242887 2.173333,2.287013 L 16,16.9181 16.606576,16.366651 c 0.04851,-0.04413 1.034906,-0.945152 2.173272,-2.286953 l 0.431337,5.032475 z m 7.435032,5.766678 h -8.447574 v -0.992224 h 8.447574 z"
 />
  <path

     d="m 15.973849,4.5976376 c -1.298457,0 -2.118085,0.5355782 -2.531988,1.3146884 l 1.44454,0.7223001 c 0.170371,-0.3408607 0.495,-0.5518697 0.843976,-0.5518697 0.300282,0 0.543754,0.1298517 0.543754,0.3814394 0,0.4950596 -1.046929,0.7872259 -1.046869,1.7691092 h 1.671781 c 0,-0.6248512 1.298457,-0.8439759 1.298457,-2.0856228 0,-1.0144063 -0.949541,-1.5500446 -2.223651,-1.5500446 z"
     
    />
  <path

     d="m 16.063062,8.5579944 c -0.632967,0 -1.071216,0.4139023 -1.071216,0.9575962 0,0.5356384 0.438249,0.9738874 1.071216,0.9738874 0.632967,0 1.071217,-0.438249 1.071217,-0.9738874 0,-0.5436939 -0.43819,-0.9575962 -1.071217,-0.9575962 z"
/>
</svg>
