<?xml version="1.0" encoding="UTF-8" standalone="no"?>
<svg xmlns="http://www.w3.org/2000/svg"
 
   width="32"
   height="32"
   viewBox="0 0 32 32"
>
  <path
     d="M 29.31264,0.380481 H 2.6888123 c -1.2748568,0 -2.3081495,1.0017717 -2.3081495,2.2382077 V 29.380367 c 0,1.236509 1.0336558,2.239152 2.3081495,2.239152 H 29.31264 c 1.274567,0 2.306697,-1.003297 2.306697,-2.239152 V 2.6186887 c 0,-1.2360728 -1.03213,-2.2382077 -2.306697,-2.2382077 z M 9.8513383,26.529679 H 5.1313979 V 12.425637 H 9.8513383 Z M 7.4918404,10.498789 h -0.031755 c -1.5828037,0 -2.6088337,-1.0824621 -2.6088337,-2.4376465 0,-1.3824931 1.056171,-2.4356134 2.6703502,-2.4356134 1.6143247,0 2.6073071,1.0528301 2.6386831,2.4356134 0,1.355475 -1.0239951,2.4376465 -2.6684607,2.4376465 z m 19.3734936,16.03089 h -4.718416 v -7.546153 c 0,-1.896125 -0.683656,-3.189938 -2.390002,-3.189938 -1.305361,0 -2.08024,0.872856 -2.420507,1.71557 -0.126085,0.300976 -0.157315,0.721932 -0.157315,1.142309 v 7.877922 h -4.717543 c 0,0 0.06174,-12.781178 0,-14.10397 h 4.71827 v 1.999549 c 0.626353,-0.960809 1.745638,-2.331391 4.251266,-2.331391 3.105616,0 5.434247,2.014656 5.434247,6.348791 z M 17.149317,14.46978 c 0.0081,-0.01321 0.01931,-0.02911 0.03051,-0.04459 v 0.04459 z"
     />
</svg>
