<?xml version="1.0" encoding="UTF-8" standalone="no"?>
<svg xmlns="http://www.w3.org/2000/svg"

   width="32"
   height="32"
   viewBox="0 0 32 32"
  >
  <path

     d="m 31.521341,23.760551 c 0,0.680539 -0.191443,1.31145 -0.498067,1.866495 l -9.80145,-10.966392 9.695183,-8.4824214 c 0.377155,0.5985095 0.604334,1.301532 0.604334,2.0612957 z M 16.000029,16.651813 29.490557,4.8479348 C 28.936959,4.544867 28.31356,4.358996 27.641093,4.358996 H 4.35897 c -0.6733005,0 -1.2968931,0.185713 -1.8482513,0.4889388 z m 3.76106,-0.714125 -3.122689,2.734011 c -0.18267,0.159239 -0.410098,0.238661 -0.638371,0.238661 -0.228387,0 -0.455838,-0.07942 -0.638497,-0.238661 l -3.123388,-2.73413 -9.9254348,11.106585 c 0.5949256,0.373402 1.2921554,0.59685 2.0461976,0.59685 H 27.641093 c 0.753912,0 1.451462,-0.223646 2.046198,-0.59685 z M 1.0831192,6.1781536 C 0.70604283,6.7766631 0.478659,7.4797251 0.478659,8.2395283 V 23.76063 c 0,0.680539 0.19053363,1.31141 0.49832328,1.866495 L 10.777274,14.658797 Z"
    />
</svg>
