<?xml version="1.0" encoding="UTF-8" standalone="no"?>
<svg xmlns="http://www.w3.org/2000/svg"
  
   viewBox="0 0 32 32"
   height="32"
   width="32">


  <path
  
     d="M 16.415344,21.938335 H 13.02201 c -1.403313,0 -2.545001,-1.141687 -2.545001,-2.545001 0,-1.400146 1.136484,-2.539854 2.535443,-2.545 l 0.860945,0.02087 c 0.24104,0.05356 0.489489,0.08201 0.742405,0.08201 0.90636,0 1.758539,-0.352963 2.399427,-0.993907 l 0.599828,0.599828 c 0.496162,0.496219 1.147796,0.744328 1.799599,0.744215 0.375416,0 0.750718,-0.08291 1.096499,-0.247544 l 2.502697,2.502697 3.59914,-3.599196 -2.501509,-2.50151 c 0.161975,-0.338372 0.247656,-0.711412 0.247656,-1.09763 0,-0.679798 -0.264736,-1.318876 -0.745458,-1.799542 L 17.615057,4.5599393 c -0.480665,-0.4806658 -1.1198,-0.7454024 -1.799541,-0.7454024 -0.383277,0 -0.753547,0.084211 -1.089883,0.2437545 L 12.216319,1.5217741 8.6240226,5.1667806 11.119763,7.6625213 c -0.450578,0.9457788 -0.285323,2.1141038 0.496671,2.8960977 l 0.599829,0.599885 c -0.219606,0.219605 -0.401884,0.462342 -0.548589,0.720065 -3.6123742,0.644677 -6.280666,3.794709 -6.280666,7.514765 0,4.20994 3.4250619,7.635002 7.635002,7.635002 h 0.848333 v 1.753223 h -3.393334 v 1.696667 c 0.416532,0 12.699497,0 13.573337,0 v -1.696667 h -3.393334 v -1.838565 c 1.659567,-0.338202 2.969733,-1.648425 3.307992,-3.307992 h 2.630343 v -1.696667 h -9.331782 z m -0.599828,-7.180691 c -0.320444,0.320444 -0.746534,0.496954 -1.199714,0.496954 -0.453236,0 -0.879326,-0.17651 -1.199769,-0.496954 -0.661474,-0.661531 -0.661474,-1.737896 0,-2.399483 0.320443,-0.320444 0.746533,-0.496954 1.199769,-0.496954 0.45318,0 0.87927,0.17651 1.199714,0.496954 0.661474,0.661587 0.661474,1.737952 0,2.399483 z m 8.398049,1.19977 -1.199713,1.199656 -1.19977,-1.199713 0.199981,-0.199924 0.999789,-0.999733 z M 15.21597,5.7594264 c 0.160166,-0.1600523 0.373097,-0.2481658 0.599546,-0.2481658 0.226618,0 0.439606,0.088283 0.599828,0.2484486 l 5.99868,5.9986228 c 0.160222,0.160222 0.248505,0.373267 0.248505,0.599829 0,0.226448 -0.08817,0.43938 -0.248222,0.599602 l -2.399766,2.399766 c -0.160222,0.160222 -0.373324,0.248505 -0.599885,0.248505 -0.226562,0 -0.439607,-0.08828 -0.599829,-0.248505 L 17.89218,14.434881 c 0.300932,-1.132016 0.0093,-2.390208 -0.876894,-3.276377 -0.640888,-0.640944 -1.493011,-0.993908 -2.399427,-0.993908 -0.300932,0 -0.595587,0.03976 -0.87876,0.115147 L 12.816204,9.3589057 c -0.160222,-0.160222 -0.248505,-0.3732668 -0.248505,-0.5998284 0,-0.2264485 0.08817,-0.4393802 0.248222,-0.5996022 z m -4.20632,-0.6065585 1.206669,-1.2351171 1.20667,1.2351171 -1.20667,1.2066697 z M 13.870343,25.331613 H 13.02201 v 5.6e-5 c -3.2743979,0 -5.9383349,-2.663937 -5.9383349,-5.938335 0,-2.633453 1.7184975,-4.899635 4.1449009,-5.663701 0.02839,0.565726 0.198058,1.125173 0.507417,1.621844 -1.711994,0.545988 -2.9556508,2.151148 -2.9556508,4.041801 0,2.338855 1.9028118,4.230356 4.2416678,4.230356 h 1.30485 c -0.289734,0.499556 -0.456517,1.090109 -0.456517,1.707979 z m 8.337423,-1.707922 c -0.25648,0.723063 -0.830802,1.307904 -1.55443,1.563309 -0.02375,-0.563576 -0.185898,-1.103003 -0.452841,-1.563309 z m -3.247421,1.707978 v 3.44989 h -3.393334 v -3.44989 c 0,-0.935542 0.761124,-1.696667 1.696667,-1.696667 0.935542,0 1.696667,0.761125 1.696667,1.696667 z" />
</svg>
