<?xml version="1.0" encoding="UTF-8" standalone="no"?>
<svg
 
   width="32"
   height="32"
   viewBox="0 0 32 32"
   >
 
  <path


     d="M 29.516986,19.088542 V 9.7927729 L 31.372212,9.0512467 15.980064,2.8990832 0.62778763,9.0512467 7.8946124,11.963309 v 4.27544 c 0,1.317982 0.9240104,2.505841 2.6017966,3.344764 1.47987,0.739965 3.42745,1.147447 5.484076,1.147447 2.056625,0 4.004265,-0.407482 5.484075,-1.147447 1.677786,-0.838923 2.601797,-2.026722 2.601797,-3.344764 v -4.267394 l 3.653648,-1.460354 v 8.577601 l -0.260606,1.109265 -1.490138,4.470414 1.704688,0.568229 0.944546,-2.83358 0.944547,2.83358 1.704688,-0.568229 -1.490138,-4.470414 z m -7.24743,-2.849853 c 0,1.272285 -2.689526,2.69529 -6.289011,2.69529 -3.599486,0 -6.2890121,-1.423005 -6.2890121,-2.69529 v -3.555351 l 6.2885911,2.520072 6.289492,-2.513947 v 3.549226 z M 15.980965,13.26802 5.4583064,9.0512467 15.980965,4.8344732 l 10.5498,4.2167735 z m 12.63753,7.46288 z"
 />
</svg>
