<?xml version="1.0" encoding="UTF-8" standalone="no"?>
<svg
  

   viewBox="0 0 32 32"
   height="32"
   width="32">


  <path

     d="M 22.403446,6.0927812 V 2.3473827 H 9.5965541 V 6.0927812 H 0.53509895 V 29.652617 H 31.464901 V 6.0927812 Z M 11.408838,4.1596662 h 9.182286 v 1.933115 H 11.408838 Z M 2.3473824,21.494809 c 0.5270551,0.396586 1.1430807,0.681071 1.8122837,0.817474 v 5.52805 H 2.3473824 Z M 11.408838,20.591124 H 9.5965541 v -1.812246 h 1.8122839 z m 0,1.812321 v 1.812284 H 9.5965541 v -1.812284 z m 1.812283,3.624605 v -3.624605 h 5.55772 v 3.624605 h 5.436888 v -3.624605 h 1.812284 v 5.436888 H 5.9719491 v -5.436888 h 1.812321 v 3.624605 z m 9.182325,-5.436926 h -1.812322 v -1.812246 h 1.812322 z m 0,1.812321 v 1.812284 h -1.812322 v -1.812284 z m 5.43685,5.436888 v -5.52805 c 0.669241,-0.136441 1.285229,-0.420888 1.812321,-0.817474 v 6.345524 z m -0.906142,-7.249209 h -2.718425 v -3.624567 h -5.436888 v 3.624567 h -5.55772 V 16.966557 H 7.7842701 v 3.624567 h -2.718463 c -1.498922,0 -2.7184247,-1.219465 -2.7184247,-2.718425 V 7.9051026 H 29.652617 v 9.9675964 c 0,1.49896 -1.219502,2.718425 -2.718463,2.718425 z"
    />
</svg>
